<?xml version="1.0" encoding="UTF-8" standalone="no"?>
<svg width="60px" height="31px" viewBox="0 0 60 31" version="1.1" xmlns="http://www.w3.org/2000/svg" xmlns:xlink="http://www.w3.org/1999/xlink" xmlns:sketch="http://www.bohemiancoding.com/sketch/ns">
    <!-- Generator: Sketch 3.3.2 (12043) - http://www.bohemiancoding.com/sketch -->
    <title>Dining Logo</title>
    <desc>Created with Sketch.</desc>
    <defs></defs>
    <g id="Welcome" stroke="none" stroke-width="1" fill="none" fill-rule="evenodd" sketch:type="MSPage">
        <g id="Desktop-HD" sketch:type="MSArtboardGroup" transform="translate(-484.000000, -570.000000)" stroke="#FEB91C">
            <g id="Dining-Logo" sketch:type="MSLayerGroup" transform="translate(485.000000, 571.000000)">
                <g id="Ovals" sketch:type="MSShapeGroup">
                    <path d="M58,29 C58,12.9837423 45.0162577,0 29,0 C12.9837423,0 0,12.9837423 0,29 L58,29 Z" id="Oval-1" stroke-width="2"></path>
                    <path d="M51.5555556,29 C51.5555556,16.5429106 41.4570894,6.44444444 29,6.44444444 C16.5429106,6.44444444 6.44444444,16.5429106 6.44444444,29 L51.5555556,29 Z" id="Oval-1"></path>
                    <path d="M45.1111111,29 C45.1111111,20.102079 37.897921,12.8888889 29,12.8888889 C20.102079,12.8888889 12.8888889,20.102079 12.8888889,29 L45.1111111,29 Z" id="Oval-1"></path>
                    <path d="M38.6666667,29 C38.6666667,23.6612474 34.3387526,19.3333333 29,19.3333333 C23.6612474,19.3333333 19.3333333,23.6612474 19.3333333,29 L38.6666667,29 Z" id="Oval-2"></path>
                </g>
                <g id="Lines" transform="translate(1.933333, 0.000000)" stroke-linecap="square" sketch:type="MSShapeGroup">
                    <path d="M26.422222,28.3555553 L6.78841553,8.72174886" id="Line"></path>
                    <path d="M27.7111111,28.3555553 L47.3449178,8.72174886" id="Line"></path>
                    <path d="M30.9333333,19.3333339 L37.8942136,2.51834381" id="Line"></path>
                    <path d="M23.1999999,19.3333339 L15.9975403,2.51834381" id="Line"></path>
                    <path d="M17.4,25.1333333 L0.585011122,18.0516634" id="Line"></path>
                    <path d="M36.0888889,25.1333333 L53.4482568,17.9308737" id="Line"></path>
                    <path d="M26.5,28.6777778 L26.5,0" id="Line"></path>
                </g>
            </g>
        </g>
    </g>
</svg>