<?xml version="1.0" encoding="UTF-8" standalone="no"?>
<svg width="60px" height="34px" viewBox="0 0 60 34" version="1.1" xmlns="http://www.w3.org/2000/svg" xmlns:xlink="http://www.w3.org/1999/xlink" xmlns:sketch="http://www.bohemiancoding.com/sketch/ns">
    <!-- Generator: Sketch 3.3.2 (12043) - http://www.bohemiancoding.com/sketch -->
    <title>Shape</title>
    <desc>Created with Sketch.</desc>
    <defs></defs>
    <g id="Welcome" stroke="none" stroke-width="1" fill="none" fill-rule="evenodd" sketch:type="MSPage">
        <g id="Desktop-HD" sketch:type="MSArtboardGroup" transform="translate(-604.000000, -567.000000)" fill="#41C0B3">
            <path d="M663.316,584.051 L657.791,582.209 L652.948,567.683 C652.813,567.275 652.432,567 652,567 L605,567 C604.447,567 604,567.448 604,568 L604,595 C604,595.552 604.447,596 605,596 L607.09,596 C607.569,598.833 610.033,601 613,601 C615.967,601 618.432,598.833 618.91,596 L649.09,596 C649.569,598.833 652.033,601 655,601 C657.967,601 660.432,598.833 660.91,596 L663,596 C663.553,596 664,595.552 664,595 L664,585 C664,584.568 663.725,584.187 663.316,584.051 L663.316,584.051 Z M642,569 L651.279,569 L655.613,582 L642,582 L642,569 L642,569 Z M618,569 L628,569 L628,582 L618,582 L618,569 L618,569 Z M606,569 L616,569 L616,582 L606,582 L606,569 L606,569 Z M613,599 C610.794,599 609,597.206 609,595 C609,592.794 610.794,591 613,591 C615.206,591 617,592.794 617,595 C617,597.206 615.206,599 613,599 L613,599 Z M640,594 L618.91,594 C618.431,591.167 615.967,589 613,589 C610.033,589 607.568,591.167 607.09,594 L606,594 L606,584 L640,584 L640,594 L640,594 Z M640,582 L630,582 L630,569 L640,569 L640,582 L640,582 Z M655,599 C652.794,599 651,597.206 651,595 C651,592.794 652.794,591 655,591 C657.206,591 659,592.794 659,595 C659,597.206 657.206,599 655,599 L655,599 Z M662,594 L660.91,594 C660.431,591.167 657.967,589 655,589 C652.033,589 649.568,591.167 649.09,594 L642,594 L642,584 L656.838,584 L662,585.721 L662,594 L662,594 Z M612.29,594.29 C612.109,594.48 612,594.74 612,595 C612,595.26 612.109,595.52 612.29,595.71 C612.479,595.891 612.74,596 613,596 C613.26,596 613.52,595.891 613.71,595.71 C613.891,595.52 614,595.26 614,595 C614,594.74 613.891,594.48 613.71,594.29 C613.33,593.92 612.67,593.92 612.29,594.29 L612.29,594.29 Z M654.29,594.29 C654.109,594.48 654,594.74 654,595 C654,595.26 654.109,595.52 654.29,595.71 C654.479,595.891 654.74,596 655,596 C655.26,596 655.52,595.891 655.71,595.71 C655.891,595.52 656,595.26 656,595 C656,594.74 655.891,594.48 655.71,594.29 C655.34,593.92 654.66,593.92 654.29,594.29 L654.29,594.29 Z" id="Shape" sketch:type="MSShapeGroup"></path>
        </g>
    </g>
</svg>