<?xml version="1.0" encoding="UTF-8" standalone="no"?>
<svg width="44px" height="31px" viewBox="0 0 44 31" version="1.1" xmlns="http://www.w3.org/2000/svg" xmlns:xlink="http://www.w3.org/1999/xlink" xmlns:sketch="http://www.bohemiancoding.com/sketch/ns">
    <!-- Generator: Sketch 3.3.2 (12043) - http://www.bohemiancoding.com/sketch -->
    <title>Shape</title>
    <desc>Created with Sketch.</desc>
    <defs></defs>
    <g id="Welcome" stroke="none" stroke-width="1" fill="none" fill-rule="evenodd" sketch:type="MSPage">
        <g id="Desktop-HD" sketch:type="MSArtboardGroup" transform="translate(-549.000000, -570.000000)" fill="#22AEE8">
            <path d="M570.917808,570 C562.364723,570 554.608118,573.474074 549,579.08184 L550.992432,581.074272 C556.093283,575.973421 563.125624,572.817798 570.917808,572.817798 C578.709992,572.817798 585.74198,575.973068 590.843184,581.074272 L592.835616,579.08184 C587.227497,573.473722 579.471245,570 570.917808,570 L570.917808,570 Z M570.917808,578.454449 C564.691106,578.454449 559.03825,580.972466 554.977648,585.070408 L556.981352,587.05192 C560.529755,583.470404 565.44954,581.272599 570.91816,581.272599 C576.38678,581.272599 581.306212,583.470756 584.854968,587.05192 L586.858672,585.070408 C582.79807,580.972466 577.145214,578.454449 570.918512,578.454449 L570.917808,578.454449 Z M570.917808,586.908899 C567.050954,586.908899 563.51946,588.478608 560.944023,591.014943 L562.925535,593.018648 C565.000045,590.975489 567.809741,589.727049 570.917808,589.727049 C574.025875,589.727049 576.835218,590.975489 578.910081,593.018648 L580.891592,591.014943 C578.316155,588.478608 574.785014,586.908899 570.917808,586.908899 L570.917808,586.908899 Z M570.917808,595.363348 C569.367825,595.363348 567.954171,595.992852 566.932592,597.014784 L570.917808,601 L574.903024,597.014784 C573.881445,595.993205 572.468142,595.363348 570.917808,595.363348 L570.917808,595.363348 Z" id="Shape" sketch:type="MSShapeGroup"></path>
        </g>
    </g>
</svg>