<?xml version="1.0" encoding="UTF-8" standalone="no"?>
<svg width="45px" height="31px" viewBox="0 0 45 31" version="1.1" xmlns="http://www.w3.org/2000/svg" xmlns:xlink="http://www.w3.org/1999/xlink" xmlns:sketch="http://www.bohemiancoding.com/sketch/ns">
    <!-- Generator: Sketch 3.3.2 (12043) - http://www.bohemiancoding.com/sketch -->
    <title>Shape</title>
    <desc>Created with Sketch.</desc>
    <defs></defs>
    <g id="Welcome" stroke="none" stroke-width="1" fill="none" fill-rule="evenodd" sketch:type="MSPage">
        <g id="Desktop-HD" sketch:type="MSArtboardGroup" transform="translate(-549.000000, -570.000000)" fill="#11A5E2">
            <path d="M571.498597,570.122848 C562.670939,570.122848 554.721838,573.586546 549,579.158215 L551.895303,582.140531 C556.839633,577.326722 563.767028,574.333177 571.5,574.333177 C579.232972,574.333177 586.160367,577.325318 591.104697,582.140531 L594,579.158215 C588.278162,573.586546 580.329061,570.122848 571.501403,570.122848 L571.498597,570.122848 Z M571.498597,578.543507 C565.197137,578.543507 559.333552,581.016374 555.140064,585.209862 L558.12238,588.192178 C561.507485,584.807073 566.291823,582.753836 571.498597,582.753836 C576.705371,582.753836 581.530408,584.797249 584.919723,588.060254 L587.815026,585.034431 C583.625749,581.000936 577.80146,578.543507 571.5,578.543507 L571.498597,578.543507 Z M571.498597,586.964165 C567.66018,586.964165 564.088417,588.585142 561.586078,591.087481 L564.568394,594.069798 C566.276385,592.361808 568.879772,591.174495 571.498597,591.174495 C574.116018,591.174495 576.719405,592.360404 578.428799,594.069798 L581.411115,591.087481 C578.908776,588.585142 575.337013,586.964165 571.498597,586.964165 L571.498597,586.964165 Z M571.498597,595.384824 C569.954809,595.384824 568.533121,596.069704 567.550711,597.052115 L571.498597,601 L575.446482,597.052115 C574.464072,595.92936 573.043787,595.384824 571.498597,595.384824 L571.498597,595.384824 Z" id="Shape" sketch:type="MSShapeGroup"></path>
        </g>
    </g>
</svg>