<?xml version="1.0" encoding="utf-8"?>
<!-- Generator: Adobe Illustrator 16.0.0, SVG Export Plug-In . SVG Version: 6.00 Build 0)  -->
<!DOCTYPE svg PUBLIC "-//W3C//DTD SVG 1.1//EN" "http://www.w3.org/Graphics/SVG/1.1/DTD/svg11.dtd">
<svg version="1.1" id="Layer_1" xmlns="http://www.w3.org/2000/svg" xmlns:xlink="http://www.w3.org/1999/xlink" x="0px" y="0px"
	 width="30px" height="30px" viewBox="0 0 30 30" enable-background="new 0 0 30 30" xml:space="preserve">
<g>
	<path fill="#FFFFFF" d="M2.587,18.713c-0.975,0-1.837-0.676-2.1-1.613c-0.3-1.162,0.413-2.325,1.538-2.625l12.413-3.188
		c0.188-0.038,0.375-0.075,0.525-0.075c0.188,0,0.375,0.038,0.563,0.075l12.225,3.188c0.562,0.15,1.013,0.487,1.312,1.012
		c0.3,0.525,0.375,1.088,0.225,1.65c-0.262,0.938-1.087,1.612-2.1,1.612c-0.188,0-0.375-0.037-0.562-0.075L15,15.6L3.112,18.675
		C2.962,18.713,2.775,18.713,2.587,18.713z"/>
	<path fill="#330000" stroke="#330000" stroke-miterlimit="10" d="M2.587,17.812c-0.562,0-1.05-0.375-1.2-0.938
		c-0.075-0.338-0.038-0.638,0.15-0.938c0.15-0.3,0.45-0.487,0.75-0.562l12.375-3.188c0.112-0.038,0.188-0.038,0.3-0.038
		c0.113,0,0.225,0,0.3,0.038l12.225,3.188c0.338,0.075,0.601,0.3,0.75,0.562c0.188,0.3,0.226,0.6,0.112,0.938
		c-0.074,0.562-0.562,0.938-1.125,0.938c-0.112,0-0.225,0-0.3-0.037L15,14.663L2.888,17.775C2.812,17.812,2.7,17.812,2.587,17.812z"
		/>
</g>
</svg>
